<svg width="2286" height="705" viewBox="0 0 2286 705" fill="none" xmlns="http://www.w3.org/2000/svg">
<path d="M493.265 575.787C494.847 578.537 493.908 582.053 491.17 583.641L479.666 590.311C476.976 591.872 473.535 590.946 471.981 588.245L449.648 549.406C448.193 546.877 445.051 545.897 442.427 547.154C419.556 558.099 394.483 565.143 368.021 567.326C365.109 567.566 362.864 569.998 362.864 572.932V617.59C362.864 620.717 360.338 623.253 357.225 623.253H343.969C340.796 623.253 338.226 620.67 338.226 617.485V572.928C338.226 570.009 335.987 567.592 333.09 567.362C306.609 565.256 281.495 558.311 258.586 547.436C255.917 546.169 252.731 547.166 251.255 549.734L229.167 588.153C227.585 590.906 224.08 591.848 221.34 590.26L209.846 583.594C207.152 582.032 206.229 578.573 207.785 575.867L229.916 537.369C231.389 534.807 230.657 531.54 228.234 529.857C206.911 515.054 188.39 496.488 173.615 475.099C171.957 472.7 168.746 471.979 166.227 473.438L127.964 495.622C125.24 497.202 121.758 496.265 120.186 493.529L113.619 482.109C112.014 479.319 112.966 475.751 115.746 474.14L153.884 452.028C156.404 450.567 157.382 447.41 156.132 444.771C145.23 421.745 138.255 396.49 136.114 369.853C135.879 366.921 133.453 364.658 130.523 364.658H86.469C83.2971 364.658 80.7258 362.075 80.7258 358.891V345.563C80.7258 342.444 83.2433 339.915 86.3503 339.915H130.442C133.417 339.915 135.88 337.617 136.121 334.639C138.266 308.046 145.231 282.832 156.11 259.84C157.37 257.178 156.385 253.994 153.843 252.521L115.693 230.395C112.943 228.801 112.001 225.269 113.588 222.508L120.175 211.052C121.754 208.308 125.249 207.368 127.981 208.952L166.234 231.137C168.747 232.595 171.952 231.875 173.606 229.48C188.391 208.071 206.929 189.493 228.272 174.681C230.675 173.013 231.4 169.776 229.939 167.236L207.789 128.706C206.231 125.996 207.155 122.531 209.854 120.966L221.35 114.3C224.084 112.714 227.582 113.654 229.161 116.402L251.286 154.885C252.743 157.423 255.894 158.409 258.531 157.156C281.442 146.272 306.56 139.318 333.047 137.208C335.967 136.975 338.226 134.538 338.226 131.595V87.1402C338.226 83.9209 340.822 81.3122 344.027 81.3122H357.2C360.328 81.3122 362.864 83.8595 362.864 86.9999V131.633C362.864 134.567 365.109 136.999 368.021 137.239C394.454 139.421 419.503 146.451 442.353 157.376C445.02 158.651 448.21 157.658 449.687 155.09L471.967 116.344C473.529 113.629 476.986 112.699 479.689 114.267L491.148 120.911C493.898 122.506 494.841 126.038 493.252 128.801L470.982 167.528C469.509 170.09 470.241 173.354 472.661 175.042C483.674 182.722 493.951 191.388 503.34 200.938C510.243 207.96 521.309 208.594 528.845 202.263L604.852 138.416C612.763 131.772 613.323 119.54 606.466 111.752C532.9 33.5354 433.227 -5.49621 329.589 0.624066C159.302 10.3266 15.3513 144.631 0.848085 325.223C-13.1768 534.929 148.576 702.459 350.25 704.185C452.085 703.019 542.01 660.576 603.93 594.97C612.401 586.042 611.527 571.755 602.107 563.844L527.159 500.887C520.574 495.355 510.845 495.851 504.876 502.049C495.058 512.243 484.239 521.455 472.6 529.567C470.214 531.229 469.493 534.447 470.946 536.972L493.265 575.787Z" fill="#0047AB"/>
<path d="M352.255 385.369C332.072 386.393 315.492 369.744 316.514 349.475C317.388 332.117 331.431 318.013 348.714 317.132C368.901 316.102 385.486 332.758 384.46 353.031C383.583 370.388 369.539 384.491 352.255 385.369ZM377.713 250.249C321.222 235.853 269.557 267.879 252.449 316.333C251.514 318.982 252.635 321.924 255.058 323.328L294.736 346.334C298.504 348.519 298.504 353.981 294.736 356.165L255.014 379.197C252.619 380.585 251.506 383.491 252.429 386.11C266.721 426.662 305.211 455.72 350.487 455.72C417.037 455.72 468.991 392.964 450.871 323.165C442.602 291.314 409.482 258.344 377.713 250.249Z" fill="#003262"/>
<path d="M917.619 150.452C997.629 150.34 1054.87 184.602 1079.85 253.254C1081.35 257.378 1079.24 261.933 1075.11 263.386L1008.6 286.818C1004.63 288.217 1000.25 286.09 998.833 282.107C984.917 243.016 960.115 220.202 916.038 220.264C847.116 220.361 813.228 276.262 813.336 353.905C813.444 430.978 847.49 487.352 917.005 487.254C957.318 487.198 983.329 467.833 997.799 429.174C999.317 425.117 1003.76 422.998 1007.83 424.44L1072.52 447.346C1076.91 448.902 1079.05 453.884 1077.18 458.169C1050.5 519.404 997.581 556.95 915.966 557.067C801.426 557.227 727.315 482.49 727.135 354.027C726.956 226.108 800.265 150.618 917.619 150.452Z" fill="#003262"/>
<path d="M2285.65 536.432C2286.91 540.494 2284.68 544.984 2280.7 546.444C2265.02 552.194 2245.37 555.633 2226.17 555.66C2172.48 555.736 2132.45 532.296 2132.36 466.901L2132.18 343.055C2132.18 338.6 2128.58 334.994 2124.14 335.001L2095.08 335.041C2090.65 335.047 2087.05 331.44 2087.04 326.986L2086.98 282.89C2086.97 278.435 2090.56 274.819 2095 274.813L2114.32 274.785C2128.34 274.765 2132.08 267.304 2132.06 253.897L2131.99 201.973C2131.98 198.801 2133.83 195.922 2136.7 194.614L2202.88 164.509C2208.19 162.091 2214.22 165.988 2214.22 171.845L2214.36 266.578C2214.36 271.032 2217.96 274.638 2222.4 274.632L2265.14 274.573C2269.58 274.566 2273.18 278.172 2273.19 282.627L2273.25 326.723C2273.25 331.178 2269.66 334.794 2265.23 334.8L2222.48 334.862C2218.05 334.868 2214.46 338.484 2214.46 342.939L2214.62 455.889C2214.66 483.407 2224.35 488.56 2238.09 488.541C2246.71 488.529 2253.19 486.071 2259.38 483.04C2263.82 480.869 2269.14 483.129 2270.61 487.861L2285.65 536.432Z" fill="#003262"/>
<path d="M1290.3 413.588C1290.23 367.496 1272.62 331.674 1231.82 331.732C1191.59 331.789 1174.08 367.66 1174.14 413.752C1174.21 459.845 1191.82 495.669 1232.05 495.614C1272.85 495.555 1290.36 459.68 1290.3 413.588ZM1373.03 413.472C1373.15 502.24 1316.56 556.947 1232.14 557.067C1148.28 557.185 1091.54 502.637 1091.41 413.869C1091.29 325.099 1147.88 270.392 1231.74 270.274C1316.16 270.155 1372.9 324.702 1373.03 413.472Z" fill="#003262"/>
<path d="M1477.51 421.276C1477.58 473.059 1512.18 493.494 1539.94 493.456C1576.2 493.405 1598.82 459.231 1598.76 413.138C1598.69 367.617 1575.98 332.935 1539.71 332.985C1511.38 333.027 1477.41 354.131 1477.49 405.91L1477.51 421.276ZM1682.05 413.02C1682.17 501.79 1629.55 556.492 1562.69 556.585C1516.8 556.65 1489.57 534.496 1475.37 509.481L1475.41 540.074C1475.42 544.861 1471.56 548.747 1466.79 548.754L1405.99 548.84C1400.84 548.848 1396.66 544.657 1396.65 539.48L1396.12 159.042C1396.11 154.342 1399.9 150.525 1404.58 150.519L1469.2 150.428C1473.89 150.422 1477.7 154.237 1477.71 158.952L1477.93 313.161C1493.19 288.667 1523.19 269.848 1562.29 269.794C1629.15 269.699 1681.93 324.819 1682.05 413.02Z" fill="#003262"/>
<path d="M1870.19 452.599L1870.16 432.115C1815.2 432.193 1778.95 440.778 1778.99 473.212C1779.01 489.714 1794.89 497.659 1814.16 497.632C1842.49 497.591 1870.23 481.051 1870.19 452.599ZM1872.54 514.05C1856.71 539.68 1832.94 556.215 1792.71 556.272C1734.91 556.353 1699.74 526.812 1699.67 477.876C1699.57 405.608 1780.56 382.733 1870.09 382.607L1870.07 364.966C1870.04 344.481 1857.55 329.705 1831.49 329.742C1808.03 329.775 1794.69 341.103 1790.81 354.365C1789.41 359.12 1784.66 362.051 1779.78 361.307L1723.83 352.774C1716.94 351.724 1712.52 344.867 1714.37 338.126C1726.49 293.873 1775.08 269.504 1833.67 269.421C1899.4 269.328 1949.87 298.849 1949.97 371.684L1950.16 509.957C1950.18 520.241 1951.37 529.337 1953.13 536.941C1954.45 542.643 1950.13 548.082 1944.3 548.091L1885.4 548.174C1880.26 548.182 1875.83 544.553 1874.81 539.493C1873.45 532.724 1872.55 523.277 1872.54 514.05Z" fill="#003262"/>
<path d="M1993.82 149.693L2057.98 149.602C2062.79 149.595 2066.7 153.509 2066.71 158.344L2067.24 539.158C2067.25 543.993 2063.35 547.917 2058.54 547.924L1994.38 548.015C1989.56 548.022 1985.66 544.108 1985.65 539.273L1985.12 158.459C1985.11 153.624 1989.01 149.7 1993.82 149.693Z" fill="#003262"/>
</svg>
